<?xml version="1.0" encoding="UTF-8"?>
<svg xmlns="http://www.w3.org/2000/svg" viewBox="0 0 520 104" role="img" aria-labelledby="title desc">
<title id="title">Curry Forward horizontal logo, dark mode</title><desc id="desc">Curry Forward Heritage and Artisan brand asset</desc>
<rect width="520" height="104" rx="3" fill="#1E1A17"/><g fill="none" stroke="#E2AA50" stroke-linecap="round" stroke-linejoin="round"><path stroke-width="2" d="M18 6h64l12 12v56l-12 12H18L6 74V18Z"/><path stroke-width="1" opacity=".65" d="M23 12h54l7 7v54l-7 7H23l-7-7V19Z"/></g><g transform="translate(10 8) scale(.86)"><g aria-label="cf" fill="#F5E8D2"><path d="M31 20c-11 0-18 8-18 21s7 21 19 21c6 0 11-2 15-6l-4-7c-3 3-6 4-10 4-6 0-10-5-10-12 0-8 4-13 11-13 3 0 6 1 9 4l4-8c-4-3-9-4-16-4Z"/><path d="M55 62V31h-8v-8h8v-3c0-11 6-17 17-17 4 0 8 1 11 3l-3 8c-2-1-4-2-6-2-5 0-8 3-8 9v2h13v8H66v31Z"/></g></g><text x="128" y="61" fill="#F5E8D2" font-family="Georgia, 'Times New Roman', serif" font-size="39" letter-spacing=".4">Curry Forward</text><text x="130" y="82" fill="#C4AD93" font-family="Arial, sans-serif" font-size="9" letter-spacing="3.4">RECIPES · STORIES · SPICE</text><g transform="translate(485 83) scale(-1 1)" fill="none" stroke="#E2AA50" stroke-width="1.5" stroke-linecap="round"><path d="M0 0c12-1 15-8 19-17M10-6c-5-1-8-4-9-9M14-11c6 0 9-3 11-7"/></g>
</svg>
