<?xml version="1.0" encoding="UTF-8"?>
<svg xmlns="http://www.w3.org/2000/svg" viewBox="0 0 64 64" role="img" aria-labelledby="title desc">
<title id="title">Curry Forward favicon, light mode</title><desc id="desc">Curry Forward Heritage and Artisan brand asset</desc>
<rect width="64" height="64" rx="12" fill="#F7F0E3"/><path fill="none" stroke="#B7792B" stroke-width="2" d="M12 5h40l7 7v40l-7 7H12l-7-7V12Z"/><g transform="translate(5 7) scale(.62)"><g aria-label="cf" fill="#402A20"><path d="M31 20c-11 0-18 8-18 21s7 21 19 21c6 0 11-2 15-6l-4-7c-3 3-6 4-10 4-6 0-10-5-10-12 0-8 4-13 11-13 3 0 6 1 9 4l4-8c-4-3-9-4-16-4Z"/><path d="M55 62V31h-8v-8h8v-3c0-11 6-17 17-17 4 0 8 1 11 3l-3 8c-2-1-4-2-6-2-5 0-8 3-8 9v2h13v8H66v31Z"/></g></g>
</svg>
