<svg xmlns="http://www.w3.org/2000/svg" width="256" height="256" viewBox="0 0 256 256" role="img" aria-labelledby="title desc">
<title id="title">CurryForward vector asset</title>
<desc id="desc">Scalable vector graphic for the CurryForward website brand system.</desc>
<path d="M64 151 H134 C150 151 161 168 157 184 H76 C69 174 63 166 64 151 Z" fill="none" stroke="#3B2A1F" stroke-width="6"/><path d="M150 150 H195 L214 178" fill="none" stroke="#3B2A1F" stroke-width="6" stroke-linecap="round" stroke-linejoin="round"/><circle cx="89" cy="191" r="16" fill="#FFF9F2" stroke="#3B2A1F" stroke-width="6"/><circle cx="192" cy="191" r="16" fill="#FFF9F2" stroke="#3B2A1F" stroke-width="6"/><rect x="85" y="81" width="72" height="54" rx="7" fill="#FFF9F2" stroke="#3B2A1F" stroke-width="6"/><path d="M50 98 H16 M50 123 H30" stroke="#D35400" stroke-width="5" stroke-linecap="round"/><g transform="translate(35,30) scale(.22)"><path d="M327.6 391.6 H482.8 C494.8 391.6 494.0 399.6 481.2 402.8 H329.2 C314.8 399.6 313.2 393.2 327.6 391.6 Z" fill="#D35400"/>
<path d="M350.0 390.0 C351.6 327.6 394.0 284.4 439.6 295.6 C470.8 303.6 488.4 346.8 481.2 390.0 Z" fill="#D35400"/>
<path d="M364.4 370.0 C373.2 324.4 390.8 305.2 414.0 299.6" fill="none" stroke="#FFF9F2" stroke-width="4.800000000000001" stroke-linecap="round" opacity="0.95"/>
<rect x="406.8" y="281.2" width="20.0" height="8.0" rx="4.0" fill="#D35400"/>
<circle cx="416.8" cy="274.8" r="9.600000000000001" fill="#D35400"/>
<path d="M416.8 254.8 L428.4 271.6 H405.2 Z" fill="#D35400"/></g>
</svg>
