<svg xmlns="http://www.w3.org/2000/svg" width="220" height="240" viewBox="0 0 220 240" fill="none">
<title>Curry Forward stacked logo dark</title>
<circle cx="110" cy="85" r="45" stroke="#F6EFE3" stroke-width="2.5"/>
<path d="M 158.00 85.00 Q 165.00 77.00 172.00 85.00 Q 165.00 93.00 158.00 85.00 Z" transform="rotate(90 165.00 85.00)" stroke="#F6EFE3" stroke-width="2.5" fill="none"/>
<path d="M 141.89 123.89 Q 148.89 115.89 155.89 123.89 Q 148.89 131.89 141.89 123.89 Z" transform="rotate(135 148.89 123.89)" stroke="#F6EFE3" stroke-width="2.5" fill="none"/>
<path d="M 103.00 140.00 Q 110.00 132.00 117.00 140.00 Q 110.00 148.00 103.00 140.00 Z" transform="rotate(180 110.00 140.00)" stroke="#F6EFE3" stroke-width="2.5" fill="none"/>
<path d="M 64.11 123.89 Q 71.11 115.89 78.11 123.89 Q 71.11 131.89 64.11 123.89 Z" transform="rotate(225 71.11 123.89)" stroke="#F6EFE3" stroke-width="2.5" fill="none"/>
<path d="M 48.00 85.00 Q 55.00 77.00 62.00 85.00 Q 55.00 93.00 48.00 85.00 Z" transform="rotate(270 55.00 85.00)" stroke="#F6EFE3" stroke-width="2.5" fill="none"/>
<path d="M 64.11 46.11 Q 71.11 38.11 78.11 46.11 Q 71.11 54.11 64.11 46.11 Z" transform="rotate(315 71.11 46.11)" stroke="#F6EFE3" stroke-width="2.5" fill="none"/>
<path d="M 103.00 30.00 Q 110.00 22.00 117.00 30.00 Q 110.00 38.00 103.00 30.00 Z" transform="rotate(360 110.00 30.00)" stroke="#F6EFE3" stroke-width="2.5" fill="none"/>
<path d="M 141.89 46.11 Q 148.89 38.11 155.89 46.11 Q 148.89 54.11 141.89 46.11 Z" transform="rotate(405 148.89 46.11)" stroke="#F6EFE3" stroke-width="2.5" fill="none"/>
<text x="110" y="97" text-anchor="middle" font-family="Playfair Display, Georgia, serif"
      font-size="42" font-style="italic" fill="#F6EFE3">cf</text>
<text x="110" y="160" text-anchor="middle" font-family="Playfair Display, Georgia, serif" font-size="38" fill="#F6EFE3">curry</text>
<text x="110" y="198" text-anchor="middle" font-family="Playfair Display, Georgia, serif" font-size="38" fill="#F6EFE3">forward</text>
<text x="110" y="222" text-anchor="middle" font-family="Inter, Arial, sans-serif" font-size="10"
      font-weight="600" letter-spacing="1.4" fill="#D48C3A">RECIPES WITH ROOTS.</text>
</svg>
