<svg xmlns="http://www.w3.org/2000/svg" width="640" height="150" viewBox="0 0 640 150" fill="none">
<title>Curry Forward primary logo dark</title>
<circle cx="75" cy="75" r="43" stroke="#F6EFE3" stroke-width="2.6"/>
<path d="M 121.00 75.00 Q 128.00 67.00 135.00 75.00 Q 128.00 83.00 121.00 75.00 Z" transform="rotate(90 128.00 75.00)" stroke="#F6EFE3" stroke-width="2.6" fill="none"/>
<path d="M 105.48 112.48 Q 112.48 104.48 119.48 112.48 Q 112.48 120.48 105.48 112.48 Z" transform="rotate(135 112.48 112.48)" stroke="#F6EFE3" stroke-width="2.6" fill="none"/>
<path d="M 68.00 128.00 Q 75.00 120.00 82.00 128.00 Q 75.00 136.00 68.00 128.00 Z" transform="rotate(180 75.00 128.00)" stroke="#F6EFE3" stroke-width="2.6" fill="none"/>
<path d="M 30.52 112.48 Q 37.52 104.48 44.52 112.48 Q 37.52 120.48 30.52 112.48 Z" transform="rotate(225 37.52 112.48)" stroke="#F6EFE3" stroke-width="2.6" fill="none"/>
<path d="M 15.00 75.00 Q 22.00 67.00 29.00 75.00 Q 22.00 83.00 15.00 75.00 Z" transform="rotate(270 22.00 75.00)" stroke="#F6EFE3" stroke-width="2.6" fill="none"/>
<path d="M 30.52 37.52 Q 37.52 29.52 44.52 37.52 Q 37.52 45.52 30.52 37.52 Z" transform="rotate(315 37.52 37.52)" stroke="#F6EFE3" stroke-width="2.6" fill="none"/>
<path d="M 68.00 22.00 Q 75.00 14.00 82.00 22.00 Q 75.00 30.00 68.00 22.00 Z" transform="rotate(360 75.00 22.00)" stroke="#F6EFE3" stroke-width="2.6" fill="none"/>
<path d="M 105.48 37.52 Q 112.48 29.52 119.48 37.52 Q 112.48 45.52 105.48 37.52 Z" transform="rotate(405 112.48 37.52)" stroke="#F6EFE3" stroke-width="2.6" fill="none"/>
<text x="75" y="87" text-anchor="middle" font-family="Playfair Display, Georgia, serif"
      font-size="40" font-style="italic" fill="#F6EFE3">cf</text>
<text x="145" y="66" font-family="Playfair Display, Georgia, serif" font-size="42" fill="#F6EFE3">curry</text>
<text x="145" y="108" font-family="Playfair Display, Georgia, serif" font-size="42" fill="#F6EFE3">forward</text>
<text x="147" y="132" font-family="Inter, Arial, sans-serif" font-size="11" font-weight="600"
      letter-spacing="1.8" fill="#D48C3A">RECIPES WITH ROOTS. MADE FOR TODAY'S KITCHEN.</text>
</svg>
