<svg xmlns="http://www.w3.org/2000/svg" width="256" height="256" viewBox="0 0 256 256" role="img" aria-labelledby="title desc">
<title id="title">CurryForward vector asset</title>
<desc id="desc">Scalable vector graphic for the CurryForward website brand system.</desc>
<circle cx="128" cy="128" r="112" fill="#D35400"/><path d="M59.72 132.64 H104.36" fill="none" stroke="#FFFFFF" stroke-width="2.48" stroke-linecap="round" opacity="0.95"/>
<path d="M59.72 145.04 H95.68" fill="none" stroke="#FFFFFF" stroke-width="2.48" stroke-linecap="round" opacity="0.95"/>
<path d="M59.72 157.44 H87.0" fill="none" stroke="#FFFFFF" stroke-width="2.48" stroke-linecap="round" opacity="0.95"/>
<path d="M69.64 182.24 H189.92000000000002 C199.22 182.24 198.6 188.44 188.68 190.92000000000002 H70.88 C59.72 188.44 58.480000000000004 183.48 69.64 182.24 Z" fill="#FFFFFF"/>
<path d="M87.0 181.0 C88.24000000000001 132.64 121.1 99.16 156.44 107.84 C180.62 114.03999999999999 194.26 147.52 188.68 181.0 Z" fill="#FFFFFF"/>
<path d="M98.16 165.5 C104.98 130.16 118.62 115.28 136.6 110.94" fill="none" stroke="#D35400" stroke-width="3.7199999999999998" stroke-linecap="round" opacity="0.95"/>
<rect x="131.02" y="96.68" width="15.5" height="6.2" rx="3.1" fill="#FFFFFF"/>
<circle cx="138.77" cy="91.72" r="7.4399999999999995" fill="#FFFFFF"/>
<path d="M138.77 76.22 L147.76 89.24000000000001 H129.78 Z" fill="#FFFFFF"/>
</svg>
